<mxfile host="app.diagrams.net" modified="2021-07-01T06:32:56.394Z" agent="5.0 (Windows NT 10.0; Win64; x64) AppleWebKit/537.36 (KHTML, like Gecko) Chrome/91.0.4472.124 Safari/537.36" etag="d7DQH8PcQWd06uA0ocHS" version="14.8.3" type="github">
  <diagram id="prtHgNgQTEPvFCAcTncT" name="Page-1">
    <mxGraphModel dx="1209" dy="693" grid="1" gridSize="10" guides="1" tooltips="1" connect="1" arrows="1" fold="1" page="1" pageScale="1" pageWidth="827" pageHeight="1169" math="1" shadow="0">
      <root>
        <mxCell id="0" />
        <mxCell id="1" parent="0" />
        <mxCell id="DMXFnal_kqYESChowV0u-1" value="output" style="rounded=0;whiteSpace=wrap;html=1;fontStyle=1;fontFamily=Helvetica;" vertex="1" parent="1">
          <mxGeometry x="50" y="40" width="330" height="30" as="geometry" />
        </mxCell>
        <mxCell id="DMXFnal_kqYESChowV0u-15" style="edgeStyle=orthogonalEdgeStyle;rounded=0;orthogonalLoop=1;jettySize=auto;html=1;exitX=0.5;exitY=0;exitDx=0;exitDy=0;entryX=0.5;entryY=1;entryDx=0;entryDy=0;fontFamily=Helvetica;fontSize=14;" edge="1" parent="1" source="DMXFnal_kqYESChowV0u-3" target="DMXFnal_kqYESChowV0u-1">
          <mxGeometry relative="1" as="geometry" />
        </mxCell>
        <mxCell id="DMXFnal_kqYESChowV0u-3" value="hidden" style="rounded=0;whiteSpace=wrap;html=1;fontStyle=1" vertex="1" parent="1">
          <mxGeometry x="50" y="110" width="330" height="30" as="geometry" />
        </mxCell>
        <mxCell id="DMXFnal_kqYESChowV0u-16" style="edgeStyle=orthogonalEdgeStyle;rounded=0;orthogonalLoop=1;jettySize=auto;html=1;exitX=0.5;exitY=0;exitDx=0;exitDy=0;entryX=0.116;entryY=1.011;entryDx=0;entryDy=0;entryPerimeter=0;fontFamily=Helvetica;fontSize=14;" edge="1" parent="1" source="DMXFnal_kqYESChowV0u-9" target="DMXFnal_kqYESChowV0u-3">
          <mxGeometry relative="1" as="geometry" />
        </mxCell>
        <mxCell id="DMXFnal_kqYESChowV0u-9" value="&lt;span style=&quot;&quot;&gt;$$x_{1}$$&lt;/span&gt;" style="rounded=0;whiteSpace=wrap;html=1;fontStyle=1;flipV=1;" vertex="1" parent="1">
          <mxGeometry x="64" y="180" width="50" height="30" as="geometry" />
        </mxCell>
        <mxCell id="DMXFnal_kqYESChowV0u-17" style="edgeStyle=orthogonalEdgeStyle;rounded=0;orthogonalLoop=1;jettySize=auto;html=1;exitX=0.5;exitY=0;exitDx=0;exitDy=0;entryX=0.328;entryY=1.078;entryDx=0;entryDy=0;entryPerimeter=0;fontFamily=Helvetica;fontSize=14;" edge="1" parent="1" source="DMXFnal_kqYESChowV0u-11" target="DMXFnal_kqYESChowV0u-3">
          <mxGeometry relative="1" as="geometry" />
        </mxCell>
        <mxCell id="DMXFnal_kqYESChowV0u-11" value="&lt;span&gt;$$x_{2}$$&lt;/span&gt;" style="rounded=0;whiteSpace=wrap;html=1;fontStyle=1;flipV=1;" vertex="1" parent="1">
          <mxGeometry x="134" y="180" width="50" height="30" as="geometry" />
        </mxCell>
        <mxCell id="DMXFnal_kqYESChowV0u-18" style="edgeStyle=orthogonalEdgeStyle;rounded=0;orthogonalLoop=1;jettySize=auto;html=1;exitX=0.5;exitY=0;exitDx=0;exitDy=0;entryX=0.67;entryY=1.056;entryDx=0;entryDy=0;entryPerimeter=0;fontFamily=Helvetica;fontSize=14;" edge="1" parent="1" source="DMXFnal_kqYESChowV0u-12" target="DMXFnal_kqYESChowV0u-3">
          <mxGeometry relative="1" as="geometry" />
        </mxCell>
        <mxCell id="DMXFnal_kqYESChowV0u-12" value="&lt;span&gt;$$x_{N-1}$$&lt;/span&gt;" style="rounded=0;whiteSpace=wrap;html=1;fontStyle=1;flipV=1;" vertex="1" parent="1">
          <mxGeometry x="246" y="180" width="50" height="30" as="geometry" />
        </mxCell>
        <mxCell id="DMXFnal_kqYESChowV0u-19" style="edgeStyle=orthogonalEdgeStyle;rounded=0;orthogonalLoop=1;jettySize=auto;html=1;exitX=0.5;exitY=0;exitDx=0;exitDy=0;entryX=0.884;entryY=1.011;entryDx=0;entryDy=0;entryPerimeter=0;fontFamily=Helvetica;fontSize=14;" edge="1" parent="1" source="DMXFnal_kqYESChowV0u-13" target="DMXFnal_kqYESChowV0u-3">
          <mxGeometry relative="1" as="geometry" />
        </mxCell>
        <mxCell id="DMXFnal_kqYESChowV0u-13" value="&lt;span&gt;$$x_{N}$$&lt;/span&gt;" style="rounded=0;whiteSpace=wrap;html=1;fontStyle=1;flipV=1;" vertex="1" parent="1">
          <mxGeometry x="316" y="180" width="50" height="30" as="geometry" />
        </mxCell>
        <mxCell id="DMXFnal_kqYESChowV0u-14" value="..." style="text;html=1;align=center;verticalAlign=middle;resizable=0;points=[];autosize=1;strokeColor=none;fontFamily=Helvetica;fontStyle=1;fontSize=14;" vertex="1" parent="1">
          <mxGeometry x="200" y="180" width="30" height="20" as="geometry" />
        </mxCell>
      </root>
    </mxGraphModel>
  </diagram>
</mxfile>
